# xmcd CD database file
#
# Track frame offsets:
#	150
#	16510
#	26627
#	40040
#	49700
#	68910
#	84750
#	100907
#	115715
#	129340
#	139880
#	152075
#	168312
#	185272
#	195277
#	210082
#	224925
#	238530
#	252342
#	264420
#
# Disc length: 3699 seconds
#
# Revision: 4
# Processed by: cddbd v1.5.2PL0 Copyright (c) Steve Scherf et al.
# Submitted via: CDex 1.51
#
DISCID=010e7114
DTITLE=Ray Charles - Greatest Country and Western Hits
DYEAR=1900
DGENRE=Soul
TTITLE0=Your Cheating Heart
TTITLE1=Hey Good Lookin'
TTITLE2=Take These Chains From My Heart
TTITLE3=Don't Tell Me Your Troubles
TTITLE4=I Can't Stop Loving You
TTITLE5=Just A Little Lovin' (Will Go A Long Way)
TTITLE6=It Makes No Difference Now
TTITLE7=You Don't Know Me
TTITLE8=You Are My Sunshine
TTITLE9=I'll Never Stand In Your Way
TTITLE10=Someday (You'll Want Me To Want You)
TTITLE11=I Love You So Much It Hurts
TTITLE12=Careless Love
TTITLE13=Oh, Lonesome Me
TTITLE14=Hang Your Head In Shame
TTITLE15=Midnight
TTITLE16=No Letter Today
TTITLE17=Crying Time
TTITLE18=Together Again
TTITLE19=Don't Let Her Know
EXTD=
EXTT0=Yesterday: 22.07.1994
EXTT1=
EXTT2=Yesterday: 02.10.1998
EXTT3=Yesterday: 06.12.1996
EXTT4=Yesterday: 07.01.94 , 17.04.98 , 20.07.01 , 14.02.03
EXTT5=
EXTT6=
EXTT7=Yesterday: 07.05.1999
EXTT8=Yesterday: 04.03.1994
EXTT9=
EXTT10=
EXTT11=
EXTT12=
EXTT13=
EXTT14=
EXTT15=
EXTT16=
EXTT17=
EXTT18=Yesterday: 09.12.1994
EXTT19=
PLAYORDER=
